<?xml version="1.0" encoding="UTF-8" standalone="no"?>
<!DOCTYPE svg PUBLIC "-//W3C//DTD SVG 1.1//EN" "http://www.w3.org/Graphics/SVG/1.1/DTD/svg11.dtd">
<svg width="100%" height="100%" viewBox="0 0 512 512" version="1.1" xmlns="http://www.w3.org/2000/svg" xmlns:xlink="http://www.w3.org/1999/xlink" xml:space="preserve" xmlns:serif="http://www.serif.com/" style="fill-rule:evenodd;clip-rule:evenodd;stroke-linejoin:round;stroke-miterlimit:2;">
    <g transform="matrix(1.20938,0,0,1.20938,114.771,-13.6941)">
        <circle cx="116.778" cy="113.85" r="39.685" style="fill:rgb(239,154,154);"/>
        <path d="M116.778,74.165C138.68,74.165 156.463,91.947 156.463,113.85C156.463,135.753 138.68,153.535 116.778,153.535C94.875,153.535 77.093,135.753 77.093,113.85C77.093,91.947 94.875,74.165 116.778,74.165ZM116.778,87.946C131.074,87.946 142.681,99.553 142.681,113.85C142.681,128.147 131.074,139.754 116.778,139.754C102.481,139.754 90.874,128.147 90.874,113.85C90.874,99.553 102.481,87.946 116.778,87.946Z" style="fill:rgb(244,67,54);"/>
    </g>
    <g transform="matrix(0.754841,-0.945573,0.945573,0.754841,-42.9509,198.141)">
        <circle cx="116.778" cy="113.85" r="39.685" style="fill:rgb(206,147,216);"/>
        <path d="M116.778,74.165C138.68,74.165 156.463,91.947 156.463,113.85C156.463,135.753 138.68,153.535 116.778,153.535C94.875,153.535 77.093,135.753 77.093,113.85C77.093,91.947 94.875,74.165 116.778,74.165ZM116.778,87.94C131.078,87.94 142.687,99.55 142.687,113.85C142.687,128.15 131.078,139.76 116.778,139.76C102.478,139.76 90.868,128.15 90.868,113.85C90.868,99.55 102.478,87.94 116.778,87.94L116.778,87.94Z" style="fill:rgb(156,39,176);"/>
    </g>
    <g transform="matrix(-0.267872,-1.17904,1.17904,-0.267872,24.3107,453.431)">
        <circle cx="116.778" cy="113.85" r="39.685" style="fill:rgb(144,202,249);"/>
        <path d="M116.778,74.165C138.68,74.165 156.463,91.947 156.463,113.85C156.463,135.753 138.68,153.535 116.778,153.535C94.875,153.535 77.093,135.753 77.093,113.85C77.093,91.947 94.875,74.165 116.778,74.165ZM116.778,87.95C131.072,87.95 142.678,99.555 142.678,113.85C142.678,128.145 131.072,139.75 116.778,139.75C102.483,139.75 90.877,128.145 90.877,113.85C90.877,99.555 102.483,87.95 116.778,87.95Z" style="fill:rgb(33,150,243);"/>
    </g>
    <g transform="matrix(-1.0889,-0.526396,0.526396,-1.0889,265.778,560.287)">
        <circle cx="116.778" cy="113.85" r="39.685" style="fill:rgb(128,203,196);"/>
        <path d="M116.778,74.165C138.68,74.165 156.463,91.947 156.463,113.85C156.463,135.753 138.68,153.535 116.778,153.535C94.875,153.535 77.093,135.753 77.093,113.85C77.093,91.947 94.875,74.165 116.778,74.165ZM116.778,87.945C131.075,87.945 142.682,99.553 142.682,113.85C142.682,128.147 131.075,139.755 116.778,139.755C102.48,139.755 90.873,128.147 90.873,113.85C90.873,99.553 102.48,87.945 116.778,87.945Z" style="fill:rgb(0,150,136);"/>
    </g>
    <g transform="matrix(-1.09041,0.522436,-0.522436,-1.09041,499.857,438.191)">
        <circle cx="116.778" cy="113.85" r="39.685" style="fill:rgb(165,214,167);"/>
        <path d="M116.778,74.165C138.68,74.165 156.463,91.947 156.463,113.85C156.463,135.753 138.68,153.535 116.778,153.535C94.875,153.535 77.093,135.753 77.093,113.85C77.093,91.947 94.875,74.165 116.778,74.165ZM116.778,87.95C131.073,87.95 142.678,99.555 142.678,113.85C142.678,128.145 131.073,139.751 116.778,139.751C102.483,139.751 90.877,128.145 90.877,113.85C90.877,99.555 102.483,87.95 116.778,87.95Z" style="fill:rgb(76,175,80);"/>
    </g>
    <g transform="matrix(-0.272096,1.17858,-1.17858,-0.272096,550.571,179.04)">
        <circle cx="116.778" cy="113.85" r="39.685" style="fill:rgb(255,245,157);"/>
        <path d="M116.778,74.165C138.68,74.165 156.463,91.947 156.463,113.85C156.463,135.753 138.68,153.535 116.778,153.535C94.875,153.535 77.093,135.753 77.093,113.85C77.093,91.947 94.875,74.165 116.778,74.165ZM116.778,87.944C131.076,87.944 142.684,99.552 142.684,113.85C142.684,128.148 131.076,139.756 116.778,139.756C102.48,139.756 90.872,128.148 90.872,113.85C90.872,99.552 102.48,87.944 116.778,87.944Z" style="fill:rgb(255,235,59);"/>
    </g>
    <g transform="matrix(0.751439,0.948081,-0.948081,0.751439,379.628,-22.2519)">
        <circle cx="116.778" cy="113.85" r="39.685" style="fill:rgb(255,204,128);"/>
        <path d="M116.778,74.165C138.68,74.165 156.463,91.947 156.463,113.85C156.463,135.753 138.68,153.535 116.778,153.535C94.875,153.535 77.093,135.753 77.093,113.85C77.093,91.947 94.875,74.165 116.778,74.165ZM116.778,87.942C131.077,87.942 142.686,99.551 142.686,113.85C142.686,128.149 131.077,139.758 116.778,139.758C102.479,139.758 90.87,128.149 90.87,113.85C90.87,99.551 102.479,87.942 116.778,87.942Z" style="fill:rgb(255,152,0);"/>
    </g>
</svg>
